<?xml version="1.0" standalone="no"?><!DOCTYPE svg PUBLIC "-//W3C//DTD SVG 1.1//EN" "http://www.w3.org/Graphics/SVG/1.1/DTD/svg11.dtd"><svg class="icon" width="200px" height="200.00px" viewBox="0 0 1024 1024" version="1.1" xmlns="http://www.w3.org/2000/svg"><path d="M733.6228025 357.50476098L604.7119751 228.65325904V357.50476098h128.9108274zM542.89904809 419.30285644V203.00952125h-247.19238329c-8.68634009 0-16.01806641 2.98608422-21.96551513 8.96319604-5.96228028 5.97216773-8.92858886 13.28411842-8.92858888 21.93585205v556.18286133c0 8.65173364 2.96630859 16.06750512 8.92858888 21.94079613 5.94250464 5.97216773 13.27917504 8.95825195 21.96057176 8.95825195h432.59655714c8.71105981 0 16.02795386-2.98608422 21.98034668-8.96319604 5.92272973-5.86834693 8.90881324-13.28411842 8.90881396-21.93585204v-370.78857422H542.89904809zM295.72149634 141.21142578h308.99047876L820.99047875 357.50476098v432.58666968c0 25.54486108-9.04724122 47.48071313-27.14172363 65.50598122-18.10931396 18.1290896-39.9462893 27.19116234-65.55541992 27.19116234h-432.5866704c-25.56958008 0-47.42633033-9.06207276-65.5356443-27.19116234C212.06170654 837.57214379 203.00952125 815.63629174 203.00952125 790.09143067V233.90856933C203.00952125 208.36370826 212.06170654 186.53167701 230.1710205 168.40258813S270.13708472 141.21142578 295.7066648 141.21142578h0.01977563z" fill="#1296db" /></svg>